# xmcd
#
# Track frame offsets: 
#        150
#        10179
#        24143
#        35956
#        50147
#        62583
#        71588
#        85963
#        97080
#        106790
#        118055
#        131450
#        142856
#        158885
#        169063
#        177198
#        185414
#        198485
#        206082
#        217410
#
# Disc length: 3056 seconds
#
# Revision: 1
# Processed by: cddbd v1.5.2PL0 Copyright (c) Steve Scherf et al.
# Submitted via: ExactAudioCopy v1.0b3
#
DISCID=250bee14
DTITLE=Laine, Frankie - Moonlight Gambler
DYEAR=2003
DGENRE=Country
TTITLE0=I Believe
TTITLE1=Don't Fence Me In
TTITLE2=High Noon
TTITLE3=Jezebel
TTITLE4=Moonlight Gambler
TTITLE5=Rawhide
TTITLE6=Jealousy
TTITLE7=Answer Me
TTITLE8=Singing The Blues
TTITLE9=You Can Depend On Me
TTITLE10=Georgia On My Mind
TTITLE11=All Of Me
TTITLE12=I Wish You Were Jealous Of Me
TTITLE13=Hold Me
TTITLE14=Someday Sweetheart
TTITLE15=Old Fashioned Love
TTITLE16=Don't Blame Me
TTITLE17=Rosetta
TTITLE18=Mule Train
TTITLE19=The Cry Of The Wild Goose
EXTD=
EXTT0=
EXTT1=
EXTT2=
EXTT3=
EXTT4=
EXTT5=
EXTT6=
EXTT7=
EXTT8=
EXTT9=
EXTT10=
EXTT11=
EXTT12=
EXTT13=
EXTT14=
EXTT15=
EXTT16=
EXTT17=
EXTT18=
EXTT19=
PLAYORDER=
